<?xml version="1.0" standalone="no"?>
<!DOCTYPE svg PUBLIC "-//W3C//DTD SVG 20010904//EN"
 "http://www.w3.org/TR/2001/REC-SVG-20010904/DTD/svg10.dtd">
<svg version="1.0" xmlns="http://www.w3.org/2000/svg"
 width="128.000000pt" height="128.000000pt" viewBox="0 0 128.000000 128.000000"
 preserveAspectRatio="xMidYMid meet">

<g transform="translate(0.000000,128.000000) scale(0.100000,-0.100000)"
fill="#000000" stroke="none">
<path d="M373 1214 c-52 -26 -73 -70 -73 -153 l0 -71 -100 0 c-115 0 -149 -12
-180 -63 -18 -30 -20 -52 -20 -285 0 -276 3 -291 58 -331 22 -16 48 -21 113
-23 l84 -3 3 -110 c1 -60 6 -113 11 -118 10 -10 35 12 146 136 l88 97 191 0
c219 0 242 7 275 81 l18 40 56 -62 c78 -86 87 -80 87 61 0 105 1 110 21 110
36 0 88 31 109 65 19 30 20 49 20 285 0 280 -4 300 -63 335 -30 19 -55 20
-422 23 -343 2 -394 0 -422 -14z m829 -48 c33 -24 38 -65 38 -292 0 -262 -5
-286 -67 -303 -21 -6 -48 -11 -60 -11 -22 0 -23 -3 -23 -97 l-1 -98 -54 58
-55 58 0 205 c0 222 -4 242 -56 283 -26 20 -38 21 -305 21 l-279 0 0 60 c0 61
18 114 42 123 7 3 191 6 408 6 309 0 399 -2 412 -13z m-295 -240 l28 -24 0
-261 c0 -336 25 -305 -250 -309 l-204 -3 -88 -96 -88 -96 -5 94 -5 94 -102 5
c-155 8 -147 -8 -151 298 -2 266 1 285 48 309 19 10 121 13 407 13 l382 0 28
-24z"/>
<path d="M195 770 c-15 -25 12 -30 161 -30 143 0 155 1 152 18 -3 15 -20 17
-155 20 -96 1 -154 -1 -158 -8z"/>
<path d="M195 639 c-4 -6 -3 -15 2 -20 5 -5 130 -8 299 -7 249 3 289 5 289 18
0 13 -40 15 -292 18 -204 2 -294 -1 -298 -9z"/>
<path d="M195 509 c-4 -6 -3 -15 2 -20 5 -5 130 -8 299 -7 249 3 289 5 289 18
0 13 -40 15 -292 18 -204 2 -294 -1 -298 -9z"/>
</g>
</svg>
