<?xml version="1.0" standalone="no"?>
<!DOCTYPE svg PUBLIC "-//W3C//DTD SVG 20010904//EN"
 "http://www.w3.org/TR/2001/REC-SVG-20010904/DTD/svg10.dtd">
<svg version="1.0" xmlns="http://www.w3.org/2000/svg"
 width="128.000000pt" height="128.000000pt" viewBox="0 0 128.000000 128.000000"
 preserveAspectRatio="xMidYMid meet">

<g transform="translate(0.000000,128.000000) scale(0.100000,-0.100000)"
fill="#000000" stroke="none">
<path d="M595 1271 c-11 -5 -147 -137 -303 -293 -260 -261 -284 -288 -288
-324 -3 -22 1 -50 8 -64 17 -31 74 -70 104 -70 l24 0 0 -211 c0 -195 2 -214
20 -244 33 -54 71 -65 214 -65 114 0 126 2 136 19 6 11 10 90 10 184 0 201 -3
197 122 197 120 0 118 4 118 -199 0 -93 4 -171 10 -182 10 -17 22 -19 136 -19
143 0 181 11 214 65 18 30 20 49 20 244 l0 211 24 0 c30 0 87 39 104 70 7 14
11 42 8 64 -4 36 -28 63 -294 328 -267 268 -291 290 -328 294 -21 2 -48 0 -59
-5z"/>
</g>
</svg>
