<?xml version="1.0" standalone="no"?>
<!DOCTYPE svg PUBLIC "-//W3C//DTD SVG 20010904//EN"
 "http://www.w3.org/TR/2001/REC-SVG-20010904/DTD/svg10.dtd">
<svg version="1.0" xmlns="http://www.w3.org/2000/svg"
 width="512.000000pt" height="512.000000pt" viewBox="0 0 512.000000 512.000000"
 preserveAspectRatio="xMidYMid meet">

<g transform="translate(0.000000,512.000000) scale(0.100000,-0.100000)"
fill="#000000" stroke="none">
<path d="M1660 5040 c-826 -100 -1402 -677 -1526 -1526 -21 -147 -21 -425 1
-569 117 -777 623 -1331 1345 -1474 521 -102 1022 -10 1428 263 46 31 86 56
90 56 4 0 48 -41 98 -91 l92 -92 -34 -44 c-80 -104 -84 -252 -9 -364 27 -41
1183 -1010 1265 -1061 25 -15 72 -34 105 -43 203 -52 408 42 502 232 31 63 37
87 41 159 6 107 -15 190 -66 267 -63 93 -1010 1221 -1046 1246 -52 35 -104 50
-171 51 -79 0 -123 -13 -186 -56 l-53 -35 -93 94 -94 93 65 98 c148 221 241
468 282 746 20 141 15 437 -10 573 -50 266 -155 513 -314 737 -83 116 -268
306 -382 389 -231 171 -497 287 -770 336 -111 20 -444 29 -560 15z m396 -111
c402 -39 763 -208 1044 -489 511 -510 643 -1287 330 -1936 -195 -405 -562
-728 -985 -870 -402 -134 -887 -114 -1272 54 -579 253 -943 849 -943 1542 0
763 433 1402 1098 1619 227 74 491 103 728 80z m1309 -2969 l90 -90 -93 -93
-92 -92 -91 91 -90 90 88 91 c48 50 90 91 93 92 3 0 46 -40 95 -89z m473 -35
c20 -9 47 -26 60 -38 67 -62 991 -1184 1017 -1235 25 -48 29 -69 30 -132 0
-129 -64 -234 -180 -291 -59 -29 -70 -31 -147 -27 -60 2 -96 9 -128 25 -25 13
-313 245 -640 517 -438 364 -601 506 -619 537 -28 49 -32 129 -8 174 24 46
437 452 477 469 45 20 92 20 138 1z"/>
<path d="M1679 4504 c-397 -72 -741 -329 -923 -690 -112 -223 -157 -484 -127
-728 40 -319 203 -620 441 -819 99 -84 150 -118 257 -171 200 -101 391 -142
627 -133 165 6 271 27 421 86 404 156 713 534 790 966 21 118 21 333 0 450
-95 529 -525 955 -1049 1040 -112 18 -335 18 -437 -1z m366 -105 c252 -31 494
-149 675 -329 217 -215 331 -471 347 -775 26 -515 -303 -996 -793 -1161 -336
-113 -705 -67 -1001 125 -478 309 -664 901 -449 1428 99 241 307 468 543 591
124 64 244 100 423 126 55 8 170 5 255 -5z"/>
<path d="M1803 4146 c-180 -59 -280 -229 -243 -411 34 -169 154 -311 291 -345
232 -58 474 290 378 545 -27 72 -104 156 -176 191 -67 33 -183 42 -250 20z
m163 -111 c145 -43 207 -190 145 -347 -26 -66 -101 -155 -148 -174 -74 -31
-148 -4 -212 76 -155 196 -77 437 150 459 8 0 38 -6 65 -14z"/>
<path d="M1465 3221 c-75 -35 -147 -112 -172 -184 -15 -44 -18 -85 -18 -277
l0 -225 28 -57 c30 -61 64 -95 131 -131 40 -21 50 -22 450 -25 477 -3 476 -3
563 83 78 79 85 113 81 388 l-3 222 -34 63 c-40 73 -98 125 -171 153 -46 17
-79 19 -423 19 l-372 0 -60 -29z m799 -92 c49 -14 121 -80 138 -127 9 -26 13
-99 13 -242 0 -197 -1 -207 -23 -242 -22 -35 -77 -78 -101 -78 -7 0 -11 23
-11 63 0 74 -19 101 -66 95 -37 -4 -54 -37 -54 -105 l0 -53 -240 0 -240 0 0
58 c0 70 -19 102 -60 102 -42 0 -60 -32 -60 -104 l0 -59 -41 6 c-47 6 -94 45
-115 94 -17 40 -20 398 -3 457 13 47 82 118 129 133 47 15 681 17 734 2z"/>
</g>
</svg>
